<svg class="markmap" style="-webkit-tap-highlight-color: rgba(0, 0, 0, 0);" xmlns="http://www.w3.org/2000/svg" width="1956" height="1820" viewBox="-1 -407.5 978 910"><style>.markmap { font: 300 16px/20px sans-serif; color: #333333; } .markmap-link { fill: none; } .markmap-foreign { display: inline-block; }</style><g transform="translate(25, 25)"><path class="markmap-link" data-depth="2" data-path="1.2" d="M49,10C89,10,89,-387.5,129,-387.5" stroke="rgb(255, 127, 14)" stroke-width="1.5"/><path class="markmap-link" data-depth="2" data-path="1.4" d="M49,10C89,10,89,-357.5,129,-357.5" stroke="rgb(214, 39, 40)" stroke-width="1.5"/><path class="markmap-link" data-depth="2" data-path="1.5" d="M49,10C89,10,89,-332.5,129,-332.5" stroke="rgb(148, 103, 189)" stroke-width="1.5"/><path class="markmap-link" data-depth="2" data-path="1.8" d="M49,10C89,10,89,-290,129,-290" stroke="rgb(127, 127, 127)" stroke-width="1.5"/><path class="markmap-link" data-depth="2" data-path="1.10" d="M49,10C89,10,89,-260,129,-260" stroke="rgb(23, 190, 207)" stroke-width="1.5"/><path class="markmap-link" data-depth="2" data-path="1.12" d="M49,10C89,10,89,-230,129,-230" stroke="rgb(255, 127, 14)" stroke-width="1.5"/><path class="markmap-link" data-depth="2" data-path="1.14" d="M49,10C89,10,89,-200,129,-200" stroke="rgb(214, 39, 40)" stroke-width="1.5"/><path class="markmap-link" data-depth="2" data-path="1.16" d="M49,10C89,10,89,-170,129,-170" stroke="rgb(140, 86, 75)" stroke-width="1.5"/><path class="markmap-link" data-depth="2" data-path="1.18" d="M49,10C89,10,89,-140,129,-140" stroke="rgb(127, 127, 127)" stroke-width="1.5"/><path class="markmap-link" data-depth="2" data-path="1.19" d="M49,10C89,10,89,-115,129,-115" stroke="rgb(188, 189, 34)" stroke-width="1.5"/><path class="markmap-link" data-depth="2" data-path="1.20" d="M49,10C89,10,89,-85,129,-85" stroke="rgb(23, 190, 207)" stroke-width="1.5"/><path class="markmap-link" data-depth="2" data-path="1.24" d="M49,10C89,10,89,-55,129,-55" stroke="rgb(214, 39, 40)" stroke-width="1.5"/><path class="markmap-link" data-depth="2" data-path="1.25" d="M49,10C89,10,89,-25,129,-25" stroke="rgb(148, 103, 189)" stroke-width="1.5"/><path class="markmap-link" data-depth="2" data-path="1.27" d="M49,10C89,10,89,0,129,0" stroke="rgb(227, 119, 194)" stroke-width="1.5"/><path class="markmap-link" data-depth="2" data-path="1.28" d="M49,10C89,10,89,25,129,25" stroke="rgb(127, 127, 127)" stroke-width="1.5"/><path class="markmap-link" data-depth="2" data-path="1.29" d="M49,10C89,10,89,50,129,50" stroke="rgb(188, 189, 34)" stroke-width="1.5"/><path class="markmap-link" data-depth="2" data-path="1.30" d="M49,10C89,10,89,80,129,80" stroke="rgb(23, 190, 207)" stroke-width="1.5"/><path class="markmap-link" data-depth="2" data-path="1.34" d="M49,10C89,10,89,138.75,129,138.75" stroke="rgb(214, 39, 40)" stroke-width="1.5"/><path class="markmap-link" data-depth="2" data-path="1.35" d="M49,10C89,10,89,197.5,129,197.5" stroke="rgb(148, 103, 189)" stroke-width="1.5"/><path class="markmap-link" data-depth="2" data-path="1.44" d="M49,10C89,10,89,377.5,129,377.5" stroke="rgb(214, 39, 40)" stroke-width="1.5"/><path class="markmap-link" data-depth="2" data-path="1.53" d="M49,10C89,10,89,407.5,129,407.5" stroke="rgb(44, 160, 44)" stroke-width="1.5"/><path class="markmap-link" data-depth="3" data-path="1.2.3" d="M331,-387.5C371,-387.5,371,-387.5,411,-387.5" stroke="rgb(44, 160, 44)" stroke-width="1.5"/><path class="markmap-link" data-depth="3" data-path="1.5.6" d="M440,-332.5C480,-332.5,480,-345,520,-345" stroke="rgb(140, 86, 75)" stroke-width="1.5"/><path class="markmap-link" data-depth="3" data-path="1.5.7" d="M440,-332.5C480,-332.5,480,-320,520,-320" stroke="rgb(227, 119, 194)" stroke-width="1.5"/><path class="markmap-link" data-depth="3" data-path="1.8.9" d="M470,-290C510,-290,510,-290,550,-290" stroke="rgb(188, 189, 34)" stroke-width="1.5"/><path class="markmap-link" data-depth="3" data-path="1.10.11" d="M434,-260C474,-260,474,-260,514,-260" stroke="rgb(31, 119, 180)" stroke-width="1.5"/><path class="markmap-link" data-depth="3" data-path="1.12.13" d="M465,-230C505,-230,505,-230,545,-230" stroke="rgb(44, 160, 44)" stroke-width="1.5"/><path class="markmap-link" data-depth="3" data-path="1.14.15" d="M322,-200C362,-200,362,-200,402,-200" stroke="rgb(148, 103, 189)" stroke-width="1.5"/><path class="markmap-link" data-depth="3" data-path="1.16.17" d="M410,-170C450,-170,450,-170,490,-170" stroke="rgb(227, 119, 194)" stroke-width="1.5"/><path class="markmap-link" data-depth="3" data-path="1.20.21" d="M401,-85C441,-85,441,-85,481,-85" stroke="rgb(31, 119, 180)" stroke-width="1.5"/><path class="markmap-link" data-depth="3" data-path="1.25.26" d="M477,-25C517,-25,517,-25,557,-25" stroke="rgb(140, 86, 75)" stroke-width="1.5"/><path class="markmap-link" data-depth="3" data-path="1.30.31" d="M386,80C426,80,426,80,466,80" stroke="rgb(31, 119, 180)" stroke-width="1.5"/><path class="markmap-link" data-depth="3" data-path="1.35.36" d="M386,197.5C426,197.5,426,197.5,466,197.5" stroke="rgb(140, 86, 75)" stroke-width="1.5"/><path class="markmap-link" data-depth="3" data-path="1.44.45" d="M338,377.5C378,377.5,378,377.5,418,377.5" stroke="rgb(148, 103, 189)" stroke-width="1.5"/><path class="markmap-link" data-depth="3" data-path="1.53.54" d="M306,407.5C346,407.5,346,407.5,386,407.5" stroke="rgb(214, 39, 40)" stroke-width="1.5"/><path class="markmap-link" data-depth="4" data-path="1.20.21.22" d="M687,-85C727,-85,727,-97.5,767,-97.5" stroke="rgb(255, 127, 14)" stroke-width="1.5"/><path class="markmap-link" data-depth="4" data-path="1.20.21.23" d="M687,-85C727,-85,727,-72.5,767,-72.5" stroke="rgb(44, 160, 44)" stroke-width="1.5"/><path class="markmap-link" data-depth="4" data-path="1.30.31.32" d="M547,80C587,80,587,67.5,627,67.5" stroke="rgb(255, 127, 14)" stroke-width="1.5"/><path class="markmap-link" data-depth="4" data-path="1.30.31.33" d="M547,80C587,80,587,92.5,627,92.5" stroke="rgb(44, 160, 44)" stroke-width="1.5"/><path class="markmap-link" data-depth="4" data-path="1.35.36.37" d="M663,197.5C703,197.5,703,122.5,743,122.5" stroke="rgb(227, 119, 194)" stroke-width="1.5"/><path class="markmap-link" data-depth="4" data-path="1.35.36.38" d="M663,197.5C703,197.5,703,147.5,743,147.5" stroke="rgb(127, 127, 127)" stroke-width="1.5"/><path class="markmap-link" data-depth="4" data-path="1.35.36.39" d="M663,197.5C703,197.5,703,172.5,743,172.5" stroke="rgb(188, 189, 34)" stroke-width="1.5"/><path class="markmap-link" data-depth="4" data-path="1.35.36.40" d="M663,197.5C703,197.5,703,197.5,743,197.5" stroke="rgb(23, 190, 207)" stroke-width="1.5"/><path class="markmap-link" data-depth="4" data-path="1.35.36.41" d="M663,197.5C703,197.5,703,222.5,743,222.5" stroke="rgb(31, 119, 180)" stroke-width="1.5"/><path class="markmap-link" data-depth="4" data-path="1.35.36.42" d="M663,197.5C703,197.5,703,247.5,743,247.5" stroke="rgb(255, 127, 14)" stroke-width="1.5"/><path class="markmap-link" data-depth="4" data-path="1.35.36.43" d="M663,197.5C703,197.5,703,272.5,743,272.5" stroke="rgb(44, 160, 44)" stroke-width="1.5"/><path class="markmap-link" data-depth="4" data-path="1.44.45.46" d="M616,377.5C656,377.5,656,302.5,696,302.5" stroke="rgb(140, 86, 75)" stroke-width="1.5"/><path class="markmap-link" data-depth="4" data-path="1.44.45.47" d="M616,377.5C656,377.5,656,327.5,696,327.5" stroke="rgb(227, 119, 194)" stroke-width="1.5"/><path class="markmap-link" data-depth="4" data-path="1.44.45.48" d="M616,377.5C656,377.5,656,352.5,696,352.5" stroke="rgb(127, 127, 127)" stroke-width="1.5"/><path class="markmap-link" data-depth="4" data-path="1.44.45.49" d="M616,377.5C656,377.5,656,377.5,696,377.5" stroke="rgb(188, 189, 34)" stroke-width="1.5"/><path class="markmap-link" data-depth="4" data-path="1.44.45.50" d="M616,377.5C656,377.5,656,402.5,696,402.5" stroke="rgb(23, 190, 207)" stroke-width="1.5"/><path class="markmap-link" data-depth="4" data-path="1.44.45.51" d="M616,377.5C656,377.5,656,427.5,696,427.5" stroke="rgb(31, 119, 180)" stroke-width="1.5"/><path class="markmap-link" data-depth="4" data-path="1.44.45.52" d="M616,377.5C656,377.5,656,452.5,696,452.5" stroke="rgb(255, 127, 14)" stroke-width="1.5"/><g data-depth="4" data-path="1.44.45.52" transform="translate(696, 432.5)"><line x1="-1" x2="231" y1="20" y2="20" stroke="rgb(255, 127, 14)" stroke-width="1.5"/><foreignObject class="markmap-foreign" x="8" y="0" width="213" height="20" style="opacity: 1;"><div xmlns="http://www.w3.org/1999/xhtml">⑧ GitHub：learn-workbuddy</div></foreignObject></g><g data-depth="4" data-path="1.44.45.51" transform="translate(696, 407.5)"><line x1="-1" x2="177" y1="20" y2="20" stroke="rgb(31, 119, 180)" stroke-width="1.5"/><foreignObject class="markmap-foreign" x="8" y="0" width="159" height="20" style="opacity: 1;"><div xmlns="http://www.w3.org/1999/xhtml">⑦ WorkBuddy 蓝皮书</div></foreignObject></g><g data-depth="4" data-path="1.44.45.50" transform="translate(696, 382.5)"><line x1="-1" x2="189" y1="20" y2="20" stroke="rgb(23, 190, 207)" stroke-width="1.5"/><foreignObject class="markmap-foreign" x="8" y="0" width="171" height="20" style="opacity: 1;"><div xmlns="http://www.w3.org/1999/xhtml">⑥ 官方自定义 Skill 实践</div></foreignObject></g><g data-depth="4" data-path="1.44.45.49" transform="translate(696, 357.5)"><line x1="-1" x2="120" y1="20" y2="20" stroke="rgb(188, 189, 34)" stroke-width="1.5"/><foreignObject class="markmap-foreign" x="8" y="0" width="102" height="20" style="opacity: 1;"><div xmlns="http://www.w3.org/1999/xhtml">⑤ 官方自动化</div></foreignObject></g><g data-depth="4" data-path="1.44.45.48" transform="translate(696, 332.5)"><line x1="-1" x2="148" y1="20" y2="20" stroke="rgb(127, 127, 127)" stroke-width="1.5"/><foreignObject class="markmap-foreign" x="8" y="0" width="130" height="20" style="opacity: 1;"><div xmlns="http://www.w3.org/1999/xhtml">④ 官方 MCP 文档</div></foreignObject></g><g data-depth="4" data-path="1.44.45.47" transform="translate(696, 307.5)"><line x1="-1" x2="147" y1="20" y2="20" stroke="rgb(227, 119, 194)" stroke-width="1.5"/><foreignObject class="markmap-foreign" x="8" y="0" width="129" height="20" style="opacity: 1;"><div xmlns="http://www.w3.org/1999/xhtml">③ 官方 Skills 文档</div></foreignObject></g><g data-depth="4" data-path="1.44.45.46" transform="translate(696, 282.5)"><line x1="-1" x2="213" y1="20" y2="20" stroke="rgb(140, 86, 75)" stroke-width="1.5"/><foreignObject class="markmap-foreign" x="8" y="0" width="195" height="20" style="opacity: 1;"><div xmlns="http://www.w3.org/1999/xhtml">② 官方 WorkBuddy 中文站</div></foreignObject></g><g data-depth="4" data-path="1.35.36.43" transform="translate(743, 252.5)"><line x1="-1" x2="83" y1="20" y2="20" stroke="rgb(44, 160, 44)" stroke-width="1.5"/><foreignObject class="markmap-foreign" x="8" y="0" width="65" height="20" style="opacity: 1;"><div xmlns="http://www.w3.org/1999/xhtml">最终架构</div></foreignObject></g><g data-depth="4" data-path="1.35.36.42" transform="translate(743, 227.5)"><line x1="-1" x2="70" y1="20" y2="20" stroke="rgb(255, 127, 14)" stroke-width="1.5"/><foreignObject class="markmap-foreign" x="8" y="0" width="52" height="20" style="opacity: 1;"><div xmlns="http://www.w3.org/1999/xhtml">第 6 版</div></foreignObject></g><g data-depth="4" data-path="1.35.36.41" transform="translate(743, 202.5)"><line x1="-1" x2="70" y1="20" y2="20" stroke="rgb(31, 119, 180)" stroke-width="1.5"/><foreignObject class="markmap-foreign" x="8" y="0" width="52" height="20" style="opacity: 1;"><div xmlns="http://www.w3.org/1999/xhtml">第 5 版</div></foreignObject></g><g data-depth="4" data-path="1.35.36.40" transform="translate(743, 177.5)"><line x1="-1" x2="70" y1="20" y2="20" stroke="rgb(23, 190, 207)" stroke-width="1.5"/><foreignObject class="markmap-foreign" x="8" y="0" width="52" height="20" style="opacity: 1;"><div xmlns="http://www.w3.org/1999/xhtml">第 4 版</div></foreignObject></g><g data-depth="4" data-path="1.35.36.39" transform="translate(743, 152.5)"><line x1="-1" x2="70" y1="20" y2="20" stroke="rgb(188, 189, 34)" stroke-width="1.5"/><foreignObject class="markmap-foreign" x="8" y="0" width="52" height="20" style="opacity: 1;"><div xmlns="http://www.w3.org/1999/xhtml">第 3 版</div></foreignObject></g><g data-depth="4" data-path="1.35.36.38" transform="translate(743, 127.5)"><line x1="-1" x2="70" y1="20" y2="20" stroke="rgb(127, 127, 127)" stroke-width="1.5"/><foreignObject class="markmap-foreign" x="8" y="0" width="52" height="20" style="opacity: 1;"><div xmlns="http://www.w3.org/1999/xhtml">第 2 版</div></foreignObject></g><g data-depth="4" data-path="1.35.36.37" transform="translate(743, 102.5)"><line x1="-1" x2="67" y1="20" y2="20" stroke="rgb(227, 119, 194)" stroke-width="1.5"/><foreignObject class="markmap-foreign" x="8" y="0" width="49" height="20" style="opacity: 1;"><div xmlns="http://www.w3.org/1999/xhtml">第 1 版</div></foreignObject></g><g data-depth="4" data-path="1.30.31.33" transform="translate(627, 72.5)"><line x1="-1" x2="67" y1="20" y2="20" stroke="rgb(44, 160, 44)" stroke-width="1.5"/><foreignObject class="markmap-foreign" x="8" y="0" width="49" height="20" style="opacity: 1;"><div xmlns="http://www.w3.org/1999/xhtml">自动化</div></foreignObject></g><g data-depth="4" data-path="1.30.31.32" transform="translate(627, 47.5)"><line x1="-1" x2="83" y1="20" y2="20" stroke="rgb(255, 127, 14)" stroke-width="1.5"/><foreignObject class="markmap-foreign" x="8" y="0" width="65" height="20" style="opacity: 1;"><div xmlns="http://www.w3.org/1999/xhtml">熟悉以后</div></foreignObject></g><g data-depth="4" data-path="1.20.21.23" transform="translate(767, -92.5)"><line x1="-1" x2="54" y1="20" y2="20" stroke="rgb(44, 160, 44)" stroke-width="1.5"/><foreignObject class="markmap-foreign" x="8" y="0" width="36" height="20" style="opacity: 1;"><div xmlns="http://www.w3.org/1999/xhtml">MCP</div></foreignObject></g><g data-depth="4" data-path="1.20.21.22" transform="translate(767, -117.5)"><line x1="-1" x2="95" y1="20" y2="20" stroke="rgb(255, 127, 14)" stroke-width="1.5"/><foreignObject class="markmap-foreign" x="8" y="0" width="77" height="20" style="opacity: 1;"><div xmlns="http://www.w3.org/1999/xhtml">Connector</div></foreignObject></g><g data-depth="3" data-path="1.53.54" transform="translate(386, 387.5)"><line x1="-1" x2="147" y1="20" y2="20" stroke="rgb(214, 39, 40)" stroke-width="1.5"/><foreignObject class="markmap-foreign" x="8" y="0" width="129" height="20" style="opacity: 1;"><div xmlns="http://www.w3.org/1999/xhtml">最重要的几个认知</div></foreignObject></g><g data-depth="3" data-path="1.44.45" transform="translate(418, 357.5)"><line x1="-1" x2="200" y1="20" y2="20" stroke="rgb(148, 103, 189)" stroke-width="1.5"/><circle stroke-width="1.5" cx="198" cy="20" r="6" stroke="rgb(148, 103, 189)" fill="#FFFFFF"/><foreignObject class="markmap-foreign" x="8" y="0" width="182" height="20" style="opacity: 1;"><div xmlns="http://www.w3.org/1999/xhtml">① 官方文档，优先级最高</div></foreignObject></g><g data-depth="3" data-path="1.35.36" transform="translate(466, 177.5)"><line x1="-1" x2="199" y1="20" y2="20" stroke="rgb(140, 86, 75)" stroke-width="1.5"/><circle stroke-width="1.5" cx="197" cy="20" r="6" stroke="rgb(140, 86, 75)" fill="#FFFFFF"/><foreignObject class="markmap-foreign" x="8" y="0" width="181" height="20" style="opacity: 1;"><div xmlns="http://www.w3.org/1999/xhtml">项目：AI 技术日报 Agent</div></foreignObject></g><g data-depth="3" data-path="1.30.31" transform="translate(466, 60)"><line x1="-1" x2="83" y1="20" y2="20" stroke="rgb(31, 119, 180)" stroke-width="1.5"/><circle stroke-width="1.5" cx="81" cy="20" r="6" stroke="rgb(31, 119, 180)" fill="#FFFFFF"/><foreignObject class="markmap-foreign" x="8" y="0" width="65" height="20" style="opacity: 1;"><div xmlns="http://www.w3.org/1999/xhtml">学习阶段</div></foreignObject></g><g data-depth="3" data-path="1.25.26" transform="translate(557, -45)"><line x1="-1" x2="198" y1="20" y2="20" stroke="rgb(140, 86, 75)" stroke-width="1.5"/><foreignObject class="markmap-foreign" x="8" y="0" width="180" height="20" style="opacity: 1;"><div xmlns="http://www.w3.org/1999/xhtml">不要什么都塞进 Memory</div></foreignObject></g><g data-depth="3" data-path="1.20.21" transform="translate(481, -105)"><line x1="-1" x2="208" y1="20" y2="20" stroke="rgb(31, 119, 180)" stroke-width="1.5"/><circle stroke-width="1.5" cx="206" cy="20" r="6" stroke="rgb(31, 119, 180)" fill="#FFFFFF"/><foreignObject class="markmap-foreign" x="8" y="0" width="190" height="20" style="opacity: 1;"><div xmlns="http://www.w3.org/1999/xhtml">Connector 和 MCP 的区别</div></foreignObject></g><g data-depth="3" data-path="1.16.17" transform="translate(490, -190)"><line x1="-1" x2="51" y1="20" y2="20" stroke="rgb(227, 119, 194)" stroke-width="1.5"/><foreignObject class="markmap-foreign" x="8" y="0" width="33" height="20" style="opacity: 1;"><div xmlns="http://www.w3.org/1999/xhtml">举例</div></foreignObject></g><g data-depth="3" data-path="1.14.15" transform="translate(402, -220)"><line x1="-1" x2="184" y1="20" y2="20" stroke="rgb(148, 103, 189)" stroke-width="1.5"/><foreignObject class="markmap-foreign" x="8" y="0" width="166" height="20" style="opacity: 1;"><div xmlns="http://www.w3.org/1999/xhtml">一个好的 Skill 思维模型</div></foreignObject></g><g data-depth="3" data-path="1.12.13" transform="translate(545, -250)"><line x1="-1" x2="163" y1="20" y2="20" stroke="rgb(44, 160, 44)" stroke-width="1.5"/><foreignObject class="markmap-foreign" x="8" y="0" width="145" height="20" style="opacity: 1;"><div xmlns="http://www.w3.org/1999/xhtml">举个非常实际的例子</div></foreignObject></g><g data-depth="3" data-path="1.10.11" transform="translate(514, -280)"><line x1="-1" x2="131" y1="20" y2="20" stroke="rgb(31, 119, 180)" stroke-width="1.5"/><foreignObject class="markmap-foreign" x="8" y="0" width="113" height="20" style="opacity: 1;"><div xmlns="http://www.w3.org/1999/xhtml">推荐的工作方式</div></foreignObject></g><g data-depth="3" data-path="1.8.9" transform="translate(550, -310)"><line x1="-1" x2="83" y1="20" y2="20" stroke="rgb(188, 189, 34)" stroke-width="1.5"/><foreignObject class="markmap-foreign" x="8" y="0" width="65" height="20" style="opacity: 1;"><div xmlns="http://www.w3.org/1999/xhtml">实战原则</div></foreignObject></g><g data-depth="3" data-path="1.5.7" transform="translate(520, -340)"><line x1="-1" x2="83" y1="20" y2="20" stroke="rgb(227, 119, 194)" stroke-width="1.5"/><foreignObject class="markmap-foreign" x="8" y="0" width="65" height="20" style="opacity: 1;"><div xmlns="http://www.w3.org/1999/xhtml">进阶用户</div></foreignObject></g><g data-depth="3" data-path="1.5.6" transform="translate(520, -365)"><line x1="-1" x2="83" y1="20" y2="20" stroke="rgb(140, 86, 75)" stroke-width="1.5"/><foreignObject class="markmap-foreign" x="8" y="0" width="65" height="20" style="opacity: 1;"><div xmlns="http://www.w3.org/1999/xhtml">普通用户</div></foreignObject></g><g data-depth="3" data-path="1.2.3" transform="translate(411, -407.5)"><line x1="-1" x2="408" y1="20" y2="20" stroke="rgb(44, 160, 44)" stroke-width="1.5"/><foreignObject class="markmap-foreign" x="8" y="0" width="390" height="20" style="opacity: 1;"><div xmlns="http://www.w3.org/1999/xhtml">一、先建立正确的认知：WorkBuddy 不是“聊天机器人”</div></foreignObject></g><g data-depth="2" data-path="1.53" transform="translate(129, 387.5)"><line x1="-1" x2="179" y1="20" y2="20" stroke="rgb(44, 160, 44)" stroke-width="1.5"/><circle stroke-width="1.5" cx="177" cy="20" r="6" stroke="rgb(44, 160, 44)" fill="#FFFFFF"/><foreignObject class="markmap-foreign" x="8" y="0" width="161" height="20" style="opacity: 1;"><div xmlns="http://www.w3.org/1999/xhtml">二十一、最终学习路线</div></foreignObject></g><g data-depth="2" data-path="1.44" transform="translate(129, 357.5)"><line x1="-1" x2="211" y1="20" y2="20" stroke="rgb(214, 39, 40)" stroke-width="1.5"/><circle stroke-width="1.5" cx="209" cy="20" r="6" stroke="rgb(214, 39, 40)" fill="#FFFFFF"/><foreignObject class="markmap-foreign" x="8" y="0" width="193" height="20" style="opacity: 1;"><div xmlns="http://www.w3.org/1999/xhtml">二十、我筛选出的学习资料</div></foreignObject></g><g data-depth="2" data-path="1.35" transform="translate(129, 177.5)"><line x1="-1" x2="259" y1="20" y2="20" stroke="rgb(148, 103, 189)" stroke-width="1.5"/><circle stroke-width="1.5" cx="257" cy="20" r="6" stroke="rgb(148, 103, 189)" fill="#FFFFFF"/><foreignObject class="markmap-foreign" x="8" y="0" width="241" height="20" style="opacity: 1;"><div xmlns="http://www.w3.org/1999/xhtml">十九、一个真正值得你练习的项目</div></foreignObject></g><g data-depth="2" data-path="1.34" transform="translate(129, 118.75)"><line x1="-1" x2="280" y1="20" y2="20" stroke="rgb(214, 39, 40)" stroke-width="1.5"/><foreignObject class="markmap-foreign" x="8" y="0" width="262" height="20" style="opacity: 1;"><div xmlns="http://www.w3.org/1999/xhtml">十八、最强的玩法：让 Skill 自我进化</div></foreignObject></g><g data-depth="2" data-path="1.30" transform="translate(129, 60)"><line x1="-1" x2="259" y1="20" y2="20" stroke="rgb(23, 190, 207)" stroke-width="1.5"/><circle stroke-width="1.5" cx="257" cy="20" r="6" stroke="rgb(23, 190, 207)" fill="#FFFFFF"/><foreignObject class="markmap-foreign" x="8" y="0" width="241" height="20" style="opacity: 1;"><div xmlns="http://www.w3.org/1999/xhtml">十七、权限：越高级越不能无脑开</div></foreignObject></g><g data-depth="2" data-path="1.29" transform="translate(129, 30)"><line x1="-1" x2="358" y1="20" y2="20" stroke="rgb(188, 189, 34)" stroke-width="1.5"/><foreignObject class="markmap-foreign" x="8" y="0" width="340" height="20" style="opacity: 1;"><div xmlns="http://www.w3.org/1999/xhtml">十六、真正高级的 Prompt：让 AI 自己检查自己</div></foreignObject></g><g data-depth="2" data-path="1.28" transform="translate(129, 5)"><line x1="-1" x2="265" y1="20" y2="20" stroke="rgb(127, 127, 127)" stroke-width="1.5"/><foreignObject class="markmap-foreign" x="8" y="0" width="247" height="20" style="opacity: 1;"><div xmlns="http://www.w3.org/1999/xhtml">十五、最值得掌握的 Agent 工作流</div></foreignObject></g><g data-depth="2" data-path="1.27" transform="translate(129, -20)"><line x1="-1" x2="348" y1="20" y2="20" stroke="rgb(227, 119, 194)" stroke-width="1.5"/><foreignObject class="markmap-foreign" x="8" y="0" width="330" height="20" style="opacity: 1;"><div xmlns="http://www.w3.org/1999/xhtml">十四、Automation：从“Agent”变成“虚拟员工”</div></foreignObject></g><g data-depth="2" data-path="1.25" transform="translate(129, -45)"><line x1="-1" x2="350" y1="20" y2="20" stroke="rgb(148, 103, 189)" stroke-width="1.5"/><circle stroke-width="1.5" cx="348" cy="20" r="6" stroke="rgb(148, 103, 189)" fill="#FFFFFF"/><foreignObject class="markmap-foreign" x="8" y="0" width="332" height="20" style="opacity: 1;"><div xmlns="http://www.w3.org/1999/xhtml">十三、Memory：让 WorkBuddy 不再每次失忆</div></foreignObject></g><g data-depth="2" data-path="1.24" transform="translate(129, -75)"><line x1="-1" x2="379" y1="20" y2="20" stroke="rgb(214, 39, 40)" stroke-width="1.5"/><foreignObject class="markmap-foreign" x="8" y="0" width="361" height="20" style="opacity: 1;"><div xmlns="http://www.w3.org/1999/xhtml">十二、MCP 最值得玩的地方：把自己的系统接进来</div></foreignObject></g><g data-depth="2" data-path="1.20" transform="translate(129, -105)"><line x1="-1" x2="274" y1="20" y2="20" stroke="rgb(23, 190, 207)" stroke-width="1.5"/><circle stroke-width="1.5" cx="272" cy="20" r="6" stroke="rgb(23, 190, 207)" fill="#FFFFFF"/><foreignObject class="markmap-foreign" x="8" y="0" width="256" height="20" style="opacity: 1;"><div xmlns="http://www.w3.org/1999/xhtml">十一、MCP：更高级的“工具扩展层”</div></foreignObject></g><g data-depth="2" data-path="1.19" transform="translate(129, -135)"><line x1="-1" x2="365" y1="20" y2="20" stroke="rgb(188, 189, 34)" stroke-width="1.5"/><foreignObject class="markmap-foreign" x="8" y="0" width="347" height="20" style="opacity: 1;"><div xmlns="http://www.w3.org/1999/xhtml">十、Connector：让 WorkBuddy 碰到外面的世界</div></foreignObject></g><g data-depth="2" data-path="1.18" transform="translate(129, -160)"><line x1="-1" x2="340" y1="20" y2="20" stroke="rgb(127, 127, 127)" stroke-width="1.5"/><foreignObject class="markmap-foreign" x="8" y="0" width="322" height="20" style="opacity: 1;"><div xmlns="http://www.w3.org/1999/xhtml">九、多 Expert：从“一个 AI”升级到“AI 小团队”</div></foreignObject></g><g data-depth="2" data-path="1.16" transform="translate(129, -190)"><line x1="-1" x2="283" y1="20" y2="20" stroke="rgb(140, 86, 75)" stroke-width="1.5"/><circle stroke-width="1.5" cx="281" cy="20" r="6" stroke="rgb(140, 86, 75)" fill="#FFFFFF"/><foreignObject class="markmap-foreign" x="8" y="0" width="265" height="20" style="opacity: 1;"><div xmlns="http://www.w3.org/1999/xhtml">八、Expert 和 Skill 到底有什么区别？</div></foreignObject></g><g data-depth="2" data-path="1.14" transform="translate(129, -220)"><line x1="-1" x2="195" y1="20" y2="20" stroke="rgb(214, 39, 40)" stroke-width="1.5"/><circle stroke-width="1.5" cx="193" cy="20" r="6" stroke="rgb(214, 39, 40)" fill="#FFFFFF"/><foreignObject class="markmap-foreign" x="8" y="0" width="177" height="20" style="opacity: 1;"><div xmlns="http://www.w3.org/1999/xhtml">七、Skill 应该怎么设计？</div></foreignObject></g><g data-depth="2" data-path="1.12" transform="translate(129, -250)"><line x1="-1" x2="338" y1="20" y2="20" stroke="rgb(255, 127, 14)" stroke-width="1.5"/><circle stroke-width="1.5" cx="336" cy="20" r="6" stroke="rgb(255, 127, 14)" fill="#FFFFFF"/><foreignObject class="markmap-foreign" x="8" y="0" width="320" height="20" style="opacity: 1;"><div xmlns="http://www.w3.org/1999/xhtml">六、Skill：WorkBuddy 真正开始“进阶”的地方</div></foreignObject></g><g data-depth="2" data-path="1.10" transform="translate(129, -280)"><line x1="-1" x2="307" y1="20" y2="20" stroke="rgb(23, 190, 207)" stroke-width="1.5"/><circle stroke-width="1.5" cx="305" cy="20" r="6" stroke="rgb(23, 190, 207)" fill="#FFFFFF"/><foreignObject class="markmap-foreign" x="8" y="0" width="289" height="20" style="opacity: 1;"><div xmlns="http://www.w3.org/1999/xhtml">五、Workspace：这是很多人忽略的核心</div></foreignObject></g><g data-depth="2" data-path="1.8" transform="translate(129, -310)"><line x1="-1" x2="343" y1="20" y2="20" stroke="rgb(127, 127, 127)" stroke-width="1.5"/><circle stroke-width="1.5" cx="341" cy="20" r="6" stroke="rgb(127, 127, 127)" fill="#FFFFFF"/><foreignObject class="markmap-foreign" x="8" y="0" width="325" height="20" style="opacity: 1;"><div xmlns="http://www.w3.org/1999/xhtml">四、真正重要的技巧：让 AI “先调查，再行动”</div></foreignObject></g><g data-depth="2" data-path="1.5" transform="translate(129, -352.5)"><line x1="-1" x2="313" y1="20" y2="20" stroke="rgb(148, 103, 189)" stroke-width="1.5"/><circle stroke-width="1.5" cx="311" cy="20" r="6" stroke="rgb(148, 103, 189)" fill="#FFFFFF"/><foreignObject class="markmap-foreign" x="8" y="0" width="295" height="20" style="opacity: 1;"><div xmlns="http://www.w3.org/1999/xhtml">三、第一阶段：不要再用“聊天式 Prompt”</div></foreignObject></g><g data-depth="2" data-path="1.4" transform="translate(129, -377.5)"><line x1="-1" x2="300" y1="20" y2="20" stroke="rgb(214, 39, 40)" stroke-width="1.5"/><foreignObject class="markmap-foreign" x="8" y="0" width="282" height="20" style="opacity: 1;"><div xmlns="http://www.w3.org/1999/xhtml">二、先把 WorkBuddy 的“能力树”搞明白</div></foreignObject></g><g data-depth="2" data-path="1.2" transform="translate(129, -407.5)"><line x1="-1" x2="204" y1="20" y2="20" stroke="rgb(255, 127, 14)" stroke-width="1.5"/><circle stroke-width="1.5" cx="202" cy="20" r="6" stroke="rgb(255, 127, 14)" fill="#FFFFFF"/><foreignObject class="markmap-foreign" x="8" y="0" width="186" height="20" style="opacity: 1;"><div xmlns="http://www.w3.org/1999/xhtml">WorkBuddy 进阶使用教程</div></foreignObject></g><g data-depth="1" data-path="1" transform="translate(0,-10)"><line x1="-1" x2="51" y1="20" y2="20" stroke="rgb(31, 119, 180)" stroke-width="2"/><circle stroke-width="1.5" cx="49" cy="20" r="6" stroke="rgb(31, 119, 180)" fill="#FFFFFF"/><foreignObject class="markmap-foreign" x="8" y="0" width="33" height="20" style="opacity: 1;"><div xmlns="http://www.w3.org/1999/xhtml">目录</div></foreignObject></g></g></svg>